<?xml version="1.0" encoding="UTF-8"?>
<svg id="Layer_2" data-name="Layer 2" xmlns="http://www.w3.org/2000/svg" viewBox="0 0 352.66 99.88">
  <defs>
    <style>
      .cls-1 {
        fill: #29abe2;
      }

      .cls-2 {
        fill: #0071bc;
      }
    </style>
  </defs>
  <g id="Layer_1-2" data-name="Layer 1">
    <g>
      <path class="cls-2" d="M80.02.13c-8.1,0-16.05,2.18-23.02,6.32l-3.85,2.29-3.85-2.29C42.35,2.31,34.4.13,26.3.13H0v91.15h26.3c8.1,0,16.05,2.18,23.02,6.32l3.85,2.29,3.85-2.29c6.96-4.14,14.91-6.32,23.02-6.32h26.3V.13h-26.3ZM69.41,30.8c1.53,0,2.78,1.24,2.78,2.78s-1.24,2.78-2.78,2.78-2.78-1.24-2.78-2.78,1.24-2.78,2.78-2.78ZM36.91,30.8c1.53,0,2.78,1.24,2.78,2.78s-1.24,2.78-2.78,2.78-2.78-1.24-2.78-2.78,1.24-2.78,2.78-2.78ZM53.16,77.59c-17.59,0-31.9-14.3-31.9-31.89h13.29c0,10.26,8.35,18.6,18.61,18.6s18.61-8.35,18.61-18.6h13.29c0,17.58-14.31,31.89-31.9,31.89Z"/>
      <g>
        <g>
          <path class="cls-2" d="M137.45.18h13.37c6.33,0,11.33,4.4,11.33,10.06,0,4.64-3.37,7.41-5.96,8.43,3.86,1.14,7.47,4.28,7.47,9.52,0,5.72-4.94,10.54-11.81,10.54h-14.4c-.96,0-1.69-.72-1.69-1.75V1.87c0-.96.72-1.69,1.69-1.69ZM139.32,17.35h11.14c4.46,0,7.95-3.07,7.95-6.93s-3.55-6.99-8.01-6.99h-11.08v13.91ZM139.32,35.48h12.05c4.76,0,8.55-3.31,8.55-7.53s-3.73-7.47-8.55-7.47h-12.05v15Z"/>
          <path class="cls-2" d="M171.91.12h21.14c1.02,0,1.75.66,1.75,1.69s-.72,1.69-1.75,1.69h-19.22v14.22h16.81c1.02,0,1.75.66,1.75,1.69s-.72,1.69-1.75,1.69h-16.81v14.28h19.22c1.02,0,1.75.66,1.75,1.69s-.72,1.69-1.75,1.69h-21.14c-.96,0-1.69-.72-1.69-1.75V1.87c0-1.02.72-1.75,1.69-1.75Z"/>
          <path class="cls-2" d="M202.14.54c1.08,0,1.87.72,1.87,1.81v33.01h23.22c1.02,0,1.69.66,1.69,1.69s-.66,1.69-1.69,1.69h-25.14c-.96,0-1.69-.72-1.69-1.75V2.35c0-1.08.72-1.81,1.75-1.81Z"/>
          <path class="cls-2" d="M259.55,38.79c-1.14.18-1.99-.42-2.47-1.57l-3.98-9.46h-19.76l-4.04,9.52c-.48,1.14-1.12,1.45-2.18,1.45-1.15,0-1.74-1.14-1.19-2.41l14.58-33.73c.78-1.87,1.39-2.59,2.83-2.59s2.11.72,2.89,2.59l14.46,33.49c.66,1.51.12,2.59-1.14,2.71ZM251.71,24.52l-8.49-20.06-8.49,20.06h16.99Z"/>
          <path class="cls-2" d="M265.3,32.83c1.63,0,2.53,3.07,6.93,3.07,4.16,0,6.75-2.65,6.75-8.19V1.87c0-1.02.72-1.81,1.81-1.81,1.02,0,1.81.78,1.81,1.81v25.96c0,8.07-4.76,11.57-10.42,11.57-4.46,0-8.43-2.65-8.43-5,0-1.02.72-1.57,1.57-1.57Z"/>
          <path class="cls-2" d="M319.23,38.79c-1.14.18-1.99-.42-2.47-1.57l-3.98-9.46h-19.76l-4.04,9.52c-.48,1.14-1.14,1.63-2.23,1.51-1.14-.12-1.69-1.21-1.14-2.47l14.58-33.73c.78-1.87,1.39-2.59,2.83-2.59s2.11.72,2.89,2.59l14.46,33.49c.66,1.51.12,2.59-1.14,2.71ZM311.4,24.52l-8.49-20.06-8.49,20.06h16.99Z"/>
          <path class="cls-2" d="M351.94,35.84c.36.48.48,1.08.48,1.51,0,.84-.6,1.51-1.63,1.51-.9,0-1.45-.36-1.99-1.32l-9.76-15.12h-9.28v14.58c0,1.02-.78,1.81-1.87,1.81-1.02,0-1.75-.78-1.75-1.81V1.87c0-1.02.72-1.75,1.69-1.75h11.63c7.89,0,13.19,4.4,13.19,11.14,0,5.6-3.8,9.64-9.76,10.84l9.04,13.73ZM339.71,19.16c5.54,0,9.16-3.13,9.16-7.89s-3.61-7.89-9.16-7.89h-10v15.78h10Z"/>
        </g>
        <g>
          <path class="cls-1" d="M155.73,51.13c7.23,0,13.55,3.31,13.55,6.99,0,2.23-1.63,3.31-3.49,3.31-2.77,0-4.76-2.83-10.42-2.83-7.59,0-12.11,5.66-12.11,12.65s4.52,12.53,12.11,12.53c5.66,0,7.65-2.77,10.42-2.77,1.87,0,3.49,1.02,3.49,3.31,0,3.61-6.32,6.99-13.55,6.99-12.77,0-20.48-9.04-20.48-20.06s7.71-20.12,20.48-20.12Z"/>
          <path class="cls-1" d="M178.74,51.92h18.37c2.11,0,3.55,1.45,3.55,3.55s-1.45,3.49-3.55,3.49h-14.34v8.55h11.93c2.11,0,3.55,1.45,3.55,3.55s-1.45,3.55-3.55,3.55h-11.93v8.79h14.34c2.11,0,3.55,1.45,3.55,3.61,0,2.05-1.45,3.49-3.55,3.49h-18.37c-2.05,0-3.49-1.51-3.49-3.55v-31.5c0-2.11,1.45-3.55,3.49-3.55Z"/>
          <path class="cls-1" d="M247.59,51.92h9.34c12.71,0,21.81,8.07,21.81,19.34s-8.97,19.28-21.5,19.28h-9.64c-2.05,0-3.49-1.51-3.49-3.55v-31.5c0-2.11,1.45-3.55,3.49-3.55ZM251.8,83.42h5.12c8.31,0,13.79-4.82,13.79-12.17s-5.48-12.29-13.85-12.29h-5.06v24.46Z"/>
          <path class="cls-1" d="M326.61,80.95c2.59,0,5.54,3.31,11.57,3.31,3.55,0,6.14-1.57,6.14-4.34,0-7.41-20.84-4.22-20.84-17.65,0-6.57,5.54-11.14,14.34-11.14,7.11,0,13.19,2.65,13.19,6.75,0,1.75-1.27,3.01-3.19,3.01-2.77,0-5.18-2.71-10.96-2.71-3.49,0-5.36,1.51-5.36,3.79,0,6.93,20.6,3.8,20.6,17.47,0,6.93-5.48,11.87-14.58,11.87-7.41,0-14.16-3.13-14.16-7.35,0-1.69,1.26-3.01,3.25-3.01Z"/>
          <path class="cls-1" d="M228.31,75.05c4.88-1.92,7.77-5.84,7.77-10.96,0-7.35-6.08-12.17-15.18-12.17h-10.24c-2.04,0-3.49,1.44-3.49,3.55v31.5c0,2.18,1.57,3.74,3.74,3.74s3.8-1.56,3.8-3.74l-.07-28.37h6.87c3.98,0,6.56,2.17,6.56,5.48s-2.58,5.61-6.56,5.61h-1.76v.02c-1.85,0-3.34,1.5-3.34,3.34s1.5,3.34,3.34,3.34c.06,0,.12-.02.18-.02h.85l6.75,11.51c1.09,2.04,2.29,2.89,4.15,2.89,2.17,0,3.5-1.33,3.5-3.08,0-1.02-.3-2.17-1.09-3.37l-5.78-9.28Z"/>
          <path class="cls-1" d="M317.88,85.05l-11.93-28.49c-1.45-3.5-2.96-4.88-6.02-4.88s-4.58,1.38-6.02,4.88l-11.99,28.61c-1.33,3.19,0,5.54,2.77,5.54,2.35.07,3.37-1.2,4.34-3.67l10.66-26.57,5.9,14.7h-7.73c-1.85,0-3.34,1.5-3.34,3.35s1.5,3.34,3.34,3.34h0s10.44,0,10.44,0l2.04,5.11c.97,2.54,2.47,3.8,4.64,3.74,2.83,0,4.28-2.35,2.89-5.66Z"/>
        </g>
      </g>
    </g>
  </g>
</svg>